<svg xmlns="http://www.w3.org/2000/svg" width="600" height="160" viewBox="0 0 600 160">
  <defs>
    <linearGradient id="bg" x1="0" y1="0" x2="1" y2="0">
      <stop offset="0%" stop-color="#0a0a0a"/>
      <stop offset="100%" stop-color="#111827"/>
    </linearGradient>
    <linearGradient id="ballGrad" x1="0" y1="0" x2="1" y2="1">
      <stop offset="0%" stop-color="#f97316"/>
      <stop offset="100%" stop-color="#ea580c"/>
    </linearGradient>
    <linearGradient id="edgeGlow" x1="0" y1="0" x2="1" y2="0">
      <stop offset="0%" stop-color="#22c55e"/>
      <stop offset="100%" stop-color="#16a34a"/>
    </linearGradient>
    <filter id="glow">
      <feGaussianBlur stdDeviation="2.5" result="blur"/>
      <feMerge><feMergeNode in="blur"/><feMergeNode in="SourceGraphic"/></feMerge>
    </filter>
  </defs>
  <rect width="600" height="160" rx="16" fill="url(#bg)"/>
  <g transform="translate(56, 80)">
    <circle cx="0" cy="0" r="36" fill="url(#ballGrad)" filter="url(#glow)"/>
    <path d="M-36,0 Q-18,-28 0,-32 Q18,-28 36,0" fill="none" stroke="#c2410c" stroke-width="2.5" opacity="0.9"/>
    <path d="M-36,0 Q-18,28 0,32 Q18,28 36,0" fill="none" stroke="#c2410c" stroke-width="2.5" opacity="0.9"/>
    <line x1="-36" y1="0" x2="36" y2="0" stroke="#c2410c" stroke-width="2.5" opacity="0.9"/>
    <line x1="0" y1="-36" x2="0" y2="36" stroke="#c2410c" stroke-width="2.5" opacity="0.9"/>
    <circle cx="-10" cy="-12" r="7" fill="white" opacity="0.15"/>
  </g>
  <g transform="translate(108, 52)" filter="url(#glow)">
    <polygon points="0,28 10,10 6,10 14,0 4,0 12,-12 0,-12 8,-24 -8,-24 0,-12 -12,-12 -4,0 -14,0 -6,10 -10,10" fill="url(#edgeGlow)" opacity="0.85"/>
  </g>
  <text x="148" y="78" font-family="'Segoe UI', system-ui, sans-serif" font-size="52" font-weight="800" letter-spacing="-1" fill="white">Court</text>
  <text x="332" y="78" font-family="'Segoe UI', system-ui, sans-serif" font-size="52" font-weight="800" letter-spacing="-1" fill="url(#edgeGlow)">Edge</text>
  <rect x="148" y="88" width="400" height="2" rx="1" fill="url(#edgeGlow)" opacity="0.35"/>
  <text x="148" y="110" font-family="'Segoe UI', system-ui, sans-serif" font-size="15" fill="#9ca3af" letter-spacing="2">NBA PREDICTION MARKET · EDGE DETECTION BOT</text>
</svg>